<svg width="21" height="26" viewBox="0 0 21 26" fill="none" xmlns="http://www.w3.org/2000/svg">
<path d="M13.12 26L7.864 16.46H6.388V26H0.232V0.727999H10.564C12.556 0.727999 14.248 1.076 15.64 1.772C17.056 2.468 18.112 3.428 18.808 4.652C19.504 5.852 19.852 7.196 19.852 8.684C19.852 10.364 19.372 11.864 18.412 13.184C17.476 14.504 16.084 15.44 14.236 15.992L20.068 26H13.12ZM6.388 12.104H10.204C11.332 12.104 12.172 11.828 12.724 11.276C13.3 10.724 13.588 9.944 13.588 8.936C13.588 7.976 13.3 7.22 12.724 6.668C12.172 6.116 11.332 5.84 10.204 5.84H6.388V12.104Z" fill="#A92A1D"/>
</svg>
